<svg width="39" height="47" viewBox="0 0 39 47" fill="none" xmlns="http://www.w3.org/2000/svg">
<path d="M6.48803 37.0992C2.77052 32.9652 0.90918 27.5455 0.90918 22.1258C0.90918 16.706 2.77052 11.2863 6.48803 7.15234C10.2055 3.01839 15.0793 0.948853 19.953 0.948853C24.8267 0.948853 29.7004 3.01839 33.4179 7.15234C37.1354 11.2863 38.9968 16.7111 38.9968 22.1258C38.9968 27.5455 37.1354 32.9652 33.4179 37.0992L24.8319 46.6477L22.395 43.9379L30.9759 34.3944C34.0193 31.0084 35.5437 26.5722 35.5437 22.136C35.5437 17.6947 34.0193 13.2585 30.9759 9.87245C27.9272 6.48128 23.9401 4.78569 19.953 4.78569C15.9607 4.78569 11.9736 6.48128 8.93007 9.86221C5.88659 13.2483 4.36226 17.6844 4.36226 22.1258C4.36226 26.5619 5.88659 30.9981 8.93007 34.3842L15.0741 41.2177L20.2952 35.4087L23.2453 32.1302L24.977 30.2041C26.3614 28.6622 27.0562 26.6439 27.0562 24.6205C27.0562 22.597 26.3614 20.5787 24.977 19.0368L19.9582 13.4532L14.9393 19.0368C13.5549 20.5787 12.8602 22.597 12.8602 24.6205C12.8602 26.6439 13.5549 28.6622 14.9393 30.2041L17.5213 33.0728L15.0844 35.7878L12.5024 32.9191C10.4389 30.6293 9.41226 27.6223 9.41226 24.6205C9.41226 21.6186 10.444 18.6116 12.5024 16.3218L19.9633 8.02319L27.4243 16.3218C29.4826 18.6116 30.5144 21.6186 30.5144 24.6205C30.5144 27.6223 29.4878 30.6293 27.4243 32.9191L19.9633 41.2177L15.9451 45.6744L15.0689 46.6477L6.48803 37.0992Z" fill="#FFA703"/>
</svg>
