<svg width="175" height="60" viewBox="0 0 175 60" fill="none" xmlns="http://www.w3.org/2000/svg">
<path d="M64.3103 32.5778H54.5293L52.6699 38.1562H46.7381L56.8165 11.082H61.9859L72.1201 38.1562H66.1884L64.3103 32.5778ZM56.0355 28.0592H62.8041L59.4012 17.925L56.0355 28.0592ZM80.2275 28.6171V38.1562H74.649V11.082H85.211C87.244 11.082 89.0291 11.4539 90.5663 12.1977C92.1159 12.9415 93.3059 14.0015 94.1365 15.3775C94.9671 16.7411 95.3824 18.2969 95.3824 20.0448C95.3824 22.6977 94.4712 24.7927 92.6489 26.3299C90.839 27.8547 88.3287 28.6171 85.118 28.6171H80.2275ZM80.2275 24.0985H85.211C86.6862 24.0985 87.8081 23.7514 88.5766 23.0572C89.3576 22.363 89.7481 21.3712 89.7481 20.082C89.7481 18.7556 89.3576 17.6832 88.5766 16.8651C87.7957 16.0469 86.7172 15.6254 85.3411 15.6006H80.2275V24.0985ZM109.254 28.2452H104.81V38.1562H99.2315V11.082H109.291C112.49 11.082 114.957 11.7949 116.692 13.2205C118.428 14.6461 119.295 16.6605 119.295 19.2638C119.295 21.1109 118.893 22.6543 118.087 23.8939C117.293 25.1212 116.085 26.1005 114.461 26.8319L120.318 37.8959V38.1562H114.331L109.254 28.2452ZM104.81 23.7266H109.31C110.711 23.7266 111.795 23.3733 112.564 22.6667C113.333 21.9477 113.717 20.9621 113.717 19.7101C113.717 18.4332 113.351 17.4291 112.62 16.6977C111.901 15.9663 110.791 15.6006 109.291 15.6006H104.81V23.7266ZM139.843 26.4229H129.132V33.6749H141.702V38.1562H123.554V11.082H141.665V15.6006H129.132V22.0531H139.843V26.4229ZM159.014 31.053C159.014 29.9993 158.642 29.1935 157.899 28.6357C157.155 28.0654 155.816 27.4704 153.882 26.8505C151.948 26.2183 150.417 25.5985 149.289 24.991C146.215 23.3299 144.678 21.0923 144.678 18.2783C144.678 16.8155 145.087 15.5138 145.905 14.3733C146.735 13.2205 147.919 12.3217 149.456 11.6771C151.006 11.0325 152.742 10.7101 154.663 10.7101C156.597 10.7101 158.32 11.0635 159.832 11.7701C161.345 12.4643 162.516 13.4498 163.347 14.7267C164.19 16.0035 164.611 17.4539 164.611 19.0779H159.033C159.033 17.8382 158.642 16.8775 157.861 16.1957C157.08 15.5014 155.983 15.1543 154.57 15.1543C153.206 15.1543 152.146 15.4457 151.39 16.0283C150.634 16.5985 150.256 17.3547 150.256 18.2969C150.256 19.177 150.696 19.9146 151.576 20.5097C152.469 21.1047 153.777 21.6626 155.5 22.1832C158.673 23.1378 160.985 24.3216 162.436 25.7348C163.886 27.1481 164.611 28.9084 164.611 31.0158C164.611 33.3588 163.725 35.1997 161.952 36.5385C160.179 37.8649 157.793 38.5281 154.793 38.5281C152.711 38.5281 150.814 38.1501 149.103 37.3939C147.392 36.6253 146.085 35.5778 145.18 34.2513C144.287 32.9249 143.841 31.3877 143.841 29.6398H149.438C149.438 32.6274 151.223 34.1212 154.793 34.1212C156.12 34.1212 157.155 33.8546 157.899 33.3216C158.642 32.7761 159.014 32.0199 159.014 31.053Z" fill="white"/>
<path d="M55.3475 45.7603H51.8666V55.4148H50.4459V45.7603H46.9724V44.5851H55.3475V45.7603ZM65.3605 50.409H60.6672V54.247H66.1192V55.4148H59.2391V44.5851H66.0448V45.7603H60.6672V49.2413H65.3605V50.409ZM78.1479 51.9785C78.014 53.1239 77.59 54.009 76.876 54.6338C76.1669 55.2536 75.2223 55.5636 74.0421 55.5636C72.7628 55.5636 71.7363 55.1049 70.9628 54.1875C70.1942 53.2702 69.8099 52.0429 69.8099 50.5057V49.4644C69.8099 48.4578 69.9884 47.5727 70.3454 46.8091C70.7074 46.0454 71.2182 45.4603 71.8777 45.0537C72.5372 44.6421 73.3008 44.4364 74.1686 44.4364C75.319 44.4364 76.2413 44.7587 76.9355 45.4033C77.6297 46.043 78.0338 46.9306 78.1479 48.0661H76.7123C76.5884 47.2033 76.3181 46.5785 75.9016 46.1917C75.49 45.8049 74.9124 45.6116 74.1686 45.6116C73.2562 45.6116 72.5396 45.9487 72.019 46.6231C71.5033 47.2975 71.2454 48.257 71.2454 49.5016V50.5504C71.2454 51.7256 71.4909 52.6603 71.9818 53.3545C72.4727 54.0487 73.1595 54.3958 74.0421 54.3958C74.8355 54.3958 75.4429 54.2173 75.8644 53.8603C76.2909 53.4983 76.5735 52.871 76.7123 51.9785H78.1479ZM90.7121 55.4148H89.2766V50.409H83.8171V55.4148H82.389V44.5851H83.8171V49.2413H89.2766V44.5851H90.7121V55.4148ZM103.856 55.4148H102.421L96.9689 47.0694V55.4148H95.5334V44.5851H96.9689L102.436 52.9677V44.5851H103.856V55.4148ZM117.008 50.3495C117.008 51.4107 116.83 52.338 116.473 53.1313C116.116 53.9198 115.61 54.5222 114.955 54.9388C114.301 55.3553 113.537 55.5636 112.664 55.5636C111.812 55.5636 111.055 55.3553 110.396 54.9388C109.736 54.5173 109.223 53.9198 108.856 53.1462C108.494 52.3677 108.308 51.4677 108.298 50.4462V49.6652C108.298 48.6239 108.479 47.7041 108.841 46.9058C109.203 46.1074 109.714 45.4975 110.374 45.076C111.038 44.6496 111.797 44.4364 112.65 44.4364C113.517 44.4364 114.281 44.6471 114.941 45.0686C115.605 45.4851 116.116 46.0925 116.473 46.8909C116.83 47.6843 117.008 48.6091 117.008 49.6652V50.3495ZM115.588 49.6504C115.588 48.3661 115.33 47.3818 114.814 46.6975C114.298 46.0082 113.577 45.6636 112.65 45.6636C111.747 45.6636 111.036 46.0082 110.515 46.6975C109.999 47.3818 109.734 48.3339 109.719 49.5537V50.3495C109.719 51.5942 109.979 52.5735 110.5 53.2875C111.026 53.9966 111.747 54.3512 112.664 54.3512C113.587 54.3512 114.301 54.0165 114.807 53.347C115.312 52.6727 115.573 51.7082 115.588 50.4537V49.6504ZM122.871 54.247H128.003V55.4148H121.435V44.5851H122.871V54.247ZM139.757 50.3495C139.757 51.4107 139.578 52.338 139.221 53.1313C138.864 53.9198 138.358 54.5222 137.704 54.9388C137.049 55.3553 136.285 55.5636 135.413 55.5636C134.56 55.5636 133.804 55.3553 133.144 54.9388C132.485 54.5173 131.971 53.9198 131.605 53.1462C131.243 52.3677 131.057 51.4677 131.047 50.4462V49.6652C131.047 48.6239 131.228 47.7041 131.59 46.9058C131.952 46.1074 132.462 45.4975 133.122 45.076C133.786 44.6496 134.545 44.4364 135.398 44.4364C136.266 44.4364 137.029 44.6471 137.689 45.0686C138.353 45.4851 138.864 46.0925 139.221 46.8909C139.578 47.6843 139.757 48.6091 139.757 49.6652V50.3495ZM138.336 49.6504C138.336 48.3661 138.078 47.3818 137.562 46.6975C137.047 46.0082 136.325 45.6636 135.398 45.6636C134.495 45.6636 133.784 46.0082 133.263 46.6975C132.748 47.3818 132.482 48.3339 132.467 49.5537V50.3495C132.467 51.5942 132.728 52.5735 133.248 53.2875C133.774 53.9966 134.495 54.3512 135.413 54.3512C136.335 54.3512 137.049 54.0165 137.555 53.347C138.061 52.6727 138.321 51.7082 138.336 50.4537V49.6504ZM152.179 53.9941C151.813 54.5198 151.299 54.914 150.64 55.1768C149.985 55.4346 149.222 55.5636 148.349 55.5636C147.466 55.5636 146.683 55.3578 145.998 54.9462C145.314 54.5297 144.784 53.9396 144.407 53.176C144.035 52.4123 143.844 51.5272 143.834 50.5206V49.576C143.834 47.9446 144.213 46.6801 144.972 45.7826C145.736 44.8851 146.807 44.4364 148.185 44.4364C149.316 44.4364 150.226 44.7264 150.915 45.3066C151.604 45.8818 152.026 46.7 152.179 47.7611H150.751C150.484 46.3281 149.631 45.6116 148.193 45.6116C147.236 45.6116 146.509 45.9487 146.013 46.6231C145.522 47.2925 145.275 48.2644 145.27 49.5388V50.4239C145.27 51.6388 145.547 52.6057 146.103 53.3247C146.658 54.0388 147.409 54.3958 148.356 54.3958C148.892 54.3958 149.36 54.3363 149.762 54.2173C150.164 54.0983 150.496 53.8974 150.759 53.6148V51.1826H148.252V50.0223H152.179V53.9941ZM160.154 50.0223L162.981 44.5851H164.602L160.868 51.376V55.4148H159.44V51.376L155.707 44.5851H157.343L160.154 50.0223Z" fill="white"/>
<g clip-path="url(#clip0)">
<path d="M6.48803 46.0992C2.77052 41.9652 0.90918 36.5455 0.90918 31.1258C0.90918 25.706 2.77052 20.2863 6.48803 16.1523C10.2055 12.0184 15.0793 9.94885 19.953 9.94885C24.8267 9.94885 29.7004 12.0184 33.4179 16.1523C37.1354 20.2863 38.9968 25.7111 38.9968 31.1258C38.9968 36.5455 37.1354 41.9652 33.4179 46.0992L24.8319 55.6477L22.395 52.9379L30.9759 43.3944C34.0193 40.0084 35.5437 35.5722 35.5437 31.136C35.5437 26.6947 34.0193 22.2585 30.9759 18.8725C27.9272 15.4813 23.9401 13.7857 19.953 13.7857C15.9607 13.7857 11.9736 15.4813 8.93007 18.8622C5.88659 22.2483 4.36226 26.6844 4.36226 31.1258C4.36226 35.5619 5.88659 39.9981 8.93007 43.3842L15.0741 50.2177L20.2952 44.4087L23.2453 41.1302L24.977 39.2041C26.3614 37.6622 27.0562 35.6439 27.0562 33.6205C27.0562 31.597 26.3614 29.5787 24.977 28.0368L19.9582 22.4532L14.9393 28.0368C13.5549 29.5787 12.8602 31.597 12.8602 33.6205C12.8602 35.6439 13.5549 37.6622 14.9393 39.2041L17.5213 42.0728L15.0844 44.7878L12.5024 41.9191C10.4389 39.6293 9.41226 36.6223 9.41226 33.6205C9.41226 30.6186 10.444 27.6116 12.5024 25.3218L19.9633 17.0232L27.4243 25.3218C29.4826 27.6116 30.5144 30.6186 30.5144 33.6205C30.5144 36.6223 29.4878 39.6293 27.4243 41.9191L19.9633 50.2177L15.9451 54.6744L15.0689 55.6477L6.48803 46.0992Z" fill="#FFA703"/>
</g>
<defs>
<clipPath id="clip0">
<rect width="38.0824" height="45.6989" fill="white" transform="translate(0.90918 9.94885)"/>
</clipPath>
</defs>
</svg>
