<svg width="24" height="24" viewBox="0 0 24 24" fill="none" xmlns="http://www.w3.org/2000/svg">
	<path fill-rule="evenodd" clip-rule="evenodd" d="M12 24C18.6274 24 24 18.6274 24 12C24 5.37258 18.6274 0 12 0C5.37258 0 0 5.37258 0 12C0 18.6274 5.37258 24 12 24ZM16.2836 12.2487C16.4018 12.2775 16.5224 12.3069 16.6388 12.3069C17.0947 12.3886 17.508 12.6261 17.8083 12.9787C18.1086 13.3312 18.2773 13.7771 18.2854 14.2402V16.2402C18.2868 16.5232 18.228 16.8032 18.1131 17.0618C17.9982 17.3203 17.8297 17.5516 17.6188 17.7402C17.2517 18.0672 16.7771 18.2476 16.2854 18.2469H16.0321C13.2379 17.9019 10.6383 16.6358 8.64388 14.6486C6.64946 12.6615 5.37394 10.0665 5.01878 7.27354C4.9795 6.98892 5.00201 6.69917 5.08477 6.42402C5.16753 6.14887 5.30861 5.89479 5.4984 5.67907C5.68818 5.46334 5.92222 5.29104 6.18458 5.1739C6.44694 5.05675 6.73147 4.99751 7.01878 5.00021H9.01878C9.49524 4.99328 9.95852 5.1567 10.3252 5.46104C10.6919 5.76537 10.9378 6.19062 11.0188 6.66021C11.0388 6.81354 11.0654 6.96688 11.0988 7.11354C11.1661 7.41008 11.2529 7.70183 11.3588 7.98688C11.4713 8.29615 11.4654 8.63611 11.3424 8.94134C11.2193 9.24656 10.9877 9.49549 10.6921 9.64021L10.4121 9.82688C10.7733 10.4762 11.222 11.0729 11.7454 11.6002C12.2728 12.1237 12.8694 12.5723 13.5188 12.9335L13.6654 12.6335C13.8102 12.338 14.0591 12.1064 14.3643 11.9833C14.6695 11.8602 15.0095 11.8544 15.3188 11.9669C15.6032 12.0745 15.8951 12.1614 16.1921 12.2269C16.2224 12.2338 16.2529 12.2412 16.2836 12.2487ZM16.9126 16.5813C16.9517 16.4951 16.972 16.4015 16.9721 16.3069L16.9588 14.2269C16.9622 14.0718 16.9115 13.9205 16.8154 13.7988C16.7193 13.6771 16.5837 13.5927 16.4321 13.5602C16.2499 13.5335 16.0699 13.5002 15.8921 13.4602C15.5352 13.3792 15.1834 13.2768 14.8388 13.1535L14.4254 14.0869C14.3882 14.1669 14.3355 14.2388 14.2702 14.2983C14.205 14.3578 14.1286 14.4038 14.0454 14.4335C13.8831 14.5002 13.7011 14.5002 13.5388 14.4335C11.4836 13.4741 9.83158 11.822 8.87211 9.76688C8.83514 9.68724 8.81426 9.60109 8.81068 9.51336C8.80709 9.42563 8.82087 9.33806 8.85122 9.25567C8.88158 9.17329 8.92791 9.09771 8.98755 9.03327C9.04719 8.96884 9.11898 8.91683 9.19878 8.88021L10.1321 8.44688C10.005 8.11033 9.90246 7.76497 9.82544 7.41354C9.78544 7.23577 9.75211 7.05577 9.72544 6.87354C9.69292 6.72192 9.60855 6.58639 9.48687 6.49026C9.36519 6.39413 9.21381 6.34343 9.05878 6.34688H7.05878C6.96412 6.347 6.87058 6.36727 6.78436 6.40636C6.69815 6.44544 6.62125 6.50243 6.55878 6.57354C6.49549 6.64867 6.44809 6.73585 6.41945 6.82981C6.3908 6.92376 6.3815 7.02256 6.39211 7.12021C6.70039 9.61844 7.83158 11.9429 9.60725 13.7271C11.3829 15.5112 13.702 16.6534 16.1988 16.9735C16.2965 16.9854 16.3956 16.9766 16.4897 16.9479C16.5838 16.9192 16.671 16.8712 16.7454 16.8069C16.8166 16.7444 16.8736 16.6675 16.9126 16.5813Z" fill="white"/>
</svg>
