<svg width="24" height="24" viewBox="0 0 24 24" fill="none" xmlns="http://www.w3.org/2000/svg">
<path fill-rule="evenodd" clip-rule="evenodd" d="M12 24C18.6274 24 24 18.6274 24 12C24 5.37258 18.6274 0 12 0C5.37258 0 0 5.37258 0 12C0 18.6274 5.37258 24 12 24ZM5.15901 6.65901C5.58097 6.23705 6.15326 6 6.75 6H17.25C17.8467 6 18.419 6.23705 18.841 6.65901C19.2629 7.08097 19.5 7.65326 19.5 8.25V15.75C19.5 16.3467 19.2629 16.919 18.841 17.341C18.419 17.7629 17.8467 18 17.25 18H6.75C6.15326 18 5.58097 17.7629 5.15901 17.341C4.73705 16.919 4.5 16.3467 4.5 15.75V8.25C4.5 7.65326 4.73705 7.08097 5.15901 6.65901ZM12.5325 11.91L16.9425 7.5H7.0575L11.4675 11.91C11.5372 11.9803 11.6202 12.0361 11.7116 12.0742C11.803 12.1122 11.901 12.1318 12 12.1318C12.099 12.1318 12.197 12.1122 12.2884 12.0742C12.3798 12.0361 12.4628 11.9803 12.5325 11.91ZM17.7803 16.2803C17.921 16.1397 18 15.9489 18 15.75V8.5575L13.59 12.9675C13.1681 13.3889 12.5963 13.6255 12 13.6255C11.4037 13.6255 10.8319 13.3889 10.41 12.9675L6 8.5575V15.75C6 15.9489 6.07902 16.1397 6.21967 16.2803C6.36032 16.421 6.55109 16.5 6.75 16.5H17.25C17.4489 16.5 17.6397 16.421 17.7803 16.2803Z" fill="white"/>
</svg>
