<svg width="50" height="50" viewBox="0 0 50 50" fill="none" xmlns="http://www.w3.org/2000/svg">
	<g clip-path="url(#clip0)">
	<path d="M49.3772 16.2495C48.4936 14.3592 46.9267 12.9259 44.9652 12.214C43.256 11.5936 41.4257 11.5861 39.7325 12.1788C38.0727 10.2762 36.0412 8.69063 33.7952 7.55628C31.053 6.17135 28.0947 5.46912 25.0022 5.46912C22.9732 5.46912 20.9733 5.77927 19.0582 6.39078C18.2363 6.65327 17.7827 7.53255 18.0452 8.3545C18.3077 9.17646 19.187 9.63006 20.0089 9.36757C21.6162 8.8542 23.2961 8.59395 25.0021 8.59395C29.6137 8.59395 33.9047 10.4786 37.0021 13.813C36.0925 14.6498 35.3898 15.6972 34.956 16.8923C34.244 18.8539 34.3387 20.9752 35.2223 22.8657C36.5669 25.7422 42.1539 28.8923 44.4936 30.113C44.9494 30.3509 45.4432 30.4701 45.938 30.4701C46.3878 30.4701 46.8385 30.3714 47.2619 30.1736C48.151 29.7581 48.7812 28.9698 48.991 28.0109C49.555 25.433 50.7217 19.1261 49.3772 16.2495ZM45.9393 27.3427C41.9097 25.2401 38.6669 22.855 38.0534 21.5425C37.5233 20.4083 37.4665 19.1354 37.8937 17.9585C38.1207 17.333 38.471 16.7753 38.9187 16.3095C39.6428 17.4657 40.218 18.7035 40.6334 20.006C40.8453 20.6703 41.4598 21.0942 42.1217 21.0942C42.279 21.0942 42.439 21.0702 42.5969 21.0199C43.4189 20.7577 43.8729 19.8786 43.6107 19.0565C43.1458 17.5987 42.5137 16.209 41.7242 14.9047C42.45 14.814 43.1919 14.8947 43.8991 15.1514C45.076 15.5786 46.0161 16.4385 46.5463 17.5727C47.1597 18.8852 46.9097 22.903 45.9393 27.3427Z" fill="white"/>
	<path d="M40.2107 34.6982C39.5262 34.1725 38.5455 34.3012 38.0197 34.9854C34.8853 39.0657 30.1407 41.4059 25.0022 41.4059C17.972 41.4059 11.7045 36.8266 9.46971 30.2912C9.81043 30.2167 10.1485 30.1194 10.4819 29.9984C12.4435 29.2864 14.0103 27.8533 14.8939 25.9629C16.2385 23.0863 15.0717 16.7795 14.5077 14.2014C14.2979 13.2425 13.6678 12.4543 12.7787 12.0388C11.8897 11.6231 10.8806 11.6453 10.0104 12.0993C7.67073 13.3201 2.08374 16.4701 0.739138 19.3467C-0.144535 21.2371 -0.239064 23.3585 0.472835 25.32C1.18473 27.2815 2.61791 28.8485 4.50839 29.7321C5.05653 29.9883 5.62409 30.1775 6.20142 30.3007C7.28783 34.1501 9.56405 37.621 12.6919 40.1633C16.1571 42.9797 20.5289 44.5308 25.0021 44.5308C28.0884 44.5308 31.0416 43.8311 33.7797 42.4514C36.3897 41.1362 38.7127 39.2128 40.4977 36.8892C41.0235 36.2048 40.8949 35.2239 40.2107 34.6982ZM3.41037 24.254C2.98323 23.0771 3.03997 21.8043 3.57013 20.67C4.18359 19.3575 7.4264 16.9724 11.455 14.8694C12.4265 19.3096 12.6765 23.3273 12.063 24.6398C11.5329 25.774 10.5927 26.6339 9.41581 27.0611C9.19657 27.1407 8.97402 27.2033 8.74971 27.2494C8.64795 26.5062 8.59639 25.7538 8.59639 25.0001C8.59639 24.2858 8.64297 23.5649 8.73477 22.8575C8.8458 22.0017 8.2421 21.218 7.38636 21.1069C6.53052 20.9958 5.74684 21.5995 5.63581 22.4553C5.52673 23.2955 5.47146 24.1518 5.47146 25.0001C5.47146 25.5873 5.49919 26.1738 5.55144 26.7574C4.55624 26.2097 3.80147 25.3316 3.41037 24.254Z" fill="white"/>
	</g>
	<defs>
	<clipPath id="clip0">
	<rect width="50" height="50" fill="white"/>
	</clipPath>
	</defs>
</svg>
