<svg width="50" height="50" viewBox="0 0 50 50" fill="none" xmlns="http://www.w3.org/2000/svg">
	<g clip-path="url(#clip0)">
	<path d="M32.0083 22.0312C30.3595 20.3822 27.4568 20.7183 25.8733 21.0654C23.6273 21.5577 21.533 22.5628 20.4073 23.6885C18.3533 25.7424 18.452 29.1056 19.8183 31.554C18.0718 33.6168 17.1875 35.6116 17.1875 37.4991C17.1875 38.362 17.887 39.0616 18.75 39.0616C19.613 39.0616 20.3125 38.362 20.3125 37.4991C20.3125 36.3366 21.013 35.0651 21.9523 33.8913C23.1908 34.7273 24.7417 35.2161 26.2606 35.2159C27.7717 35.2158 29.2497 34.7333 30.351 33.6321C31.4766 32.5064 32.4817 30.412 32.9739 28.1662C33.3211 26.5826 33.6571 23.68 32.0083 22.0312ZM29.9214 27.4971C29.5261 29.3008 28.7267 30.8371 28.1412 31.4225C27.2195 32.344 25.4899 32.2521 24.1788 31.5866C24.9998 30.8588 25.7637 30.2829 26.2467 29.9597C26.964 29.4808 27.1575 28.5112 26.6791 27.7935C26.2005 27.0755 25.2303 26.8815 24.5123 27.3601C24.4565 27.3972 23.432 28.0845 22.1731 29.1851C21.7848 28.0021 21.8469 26.668 22.6168 25.898C23.2022 25.3127 24.7385 24.5133 26.5422 24.1179C27.2506 23.9626 27.8474 23.9023 28.3311 23.9023C29.1347 23.9023 29.6262 24.0686 29.7983 24.2407C30.0744 24.5167 30.3348 25.6115 29.9214 27.4971Z" fill="white"/>
	<path d="M49.5621 23.9148L27.5057 1.04934C27.4993 1.0426 27.4926 1.03596 27.486 1.02932C26.1152 -0.341479 23.8849 -0.341479 22.5141 1.02932C22.5075 1.03596 22.5008 1.0426 22.4944 1.04934L0.437926 23.9148C-0.161195 24.5359 -0.143324 25.525 0.477672 26.1241C1.09886 26.7233 2.08793 26.7054 2.68705 26.0843L3.90629 24.8204V45.5074C3.90629 47.9843 5.92152 49.9995 8.39847 49.9995H41.6016C44.0786 49.9995 46.0938 47.9843 46.0938 45.5074V24.8204L47.3129 26.0843C47.6196 26.4022 48.0283 26.5621 48.4377 26.562C48.8282 26.562 49.2192 26.4165 49.5223 26.1241C50.1434 25.525 50.1612 24.536 49.5621 23.9148ZM42.9688 45.5074C42.9688 46.2614 42.3555 46.8746 41.6016 46.8746H8.39847C7.64457 46.8746 7.03128 46.2614 7.03128 45.5074V21.5808L24.7299 3.23293C24.8806 3.0887 25.1194 3.0887 25.2701 3.23293L42.9688 21.5808V45.5074Z" fill="white"/>
	</g>
	<defs>
	<clipPath id="clip0">
	<rect width="50" height="50" fill="white"/>
	</clipPath>
	</defs>
</svg>
