<svg width="38" height="50" viewBox="0 0 38 50" fill="none" xmlns="http://www.w3.org/2000/svg">
<path d="M19 0C8.5234 0 0 8.76172 0 19.5312C0 22.6176 0.680675 25.5709 2.02293 28.3091C3.18858 30.6868 4.84519 32.8265 6.84 34.5381V40.625C6.84 45.7944 10.9312 50 15.96 50H22.04C27.0688 50 31.16 45.7944 31.16 40.625V34.5381C33.1547 32.8265 34.8114 30.6868 35.9771 28.3091C37.3193 25.5709 38 22.6176 38 19.5312C38 8.76172 29.4766 0 19 0ZM22.04 46.875H15.96C12.6074 46.875 9.88 44.0713 9.88 40.625V35.1562H28.12V40.625C28.12 44.0713 25.3925 46.875 22.04 46.875ZM29.3356 32.0312H20.52V26.3643C21.0858 26.275 21.7813 26.1534 22.5142 25.9971C25.9522 25.2635 27.0624 24.4461 27.5984 23.8951C28.1345 23.3441 28.9297 22.2028 29.6432 18.6688C30.0056 16.8739 30.1769 15.2938 30.1841 15.2274C30.2346 14.7562 30.0741 14.2867 29.748 13.9515C29.4219 13.6161 28.9652 13.4514 28.5067 13.5032C28.4421 13.5105 26.905 13.6867 25.159 14.0592C21.7212 14.7928 20.6109 15.6102 20.0748 16.1611C19.7771 16.4672 19.3993 16.9562 19 17.9356C18.6007 16.9563 18.2229 16.4673 17.9252 16.1612C17.3892 15.6102 16.2789 14.7928 12.841 14.0593C11.095 13.6868 9.55785 13.5106 9.49325 13.5033C9.03507 13.4516 8.57812 13.6163 8.25199 13.9516C7.92576 14.2868 7.76539 14.7562 7.81593 15.2275C7.82306 15.2939 7.99444 16.874 8.35677 18.6688C9.07041 22.2028 9.86556 23.3441 10.4016 23.8952C10.9376 24.4463 12.0478 25.2637 15.4858 25.9972C16.2186 26.1535 16.9142 26.2751 17.48 26.3644V32.0312H8.66438C5.0805 28.9047 3.04 24.3948 3.04 19.5312C3.04 10.4848 10.1996 3.125 19 3.125C27.8004 3.125 34.96 10.4848 34.96 19.5312C34.96 24.3948 32.9195 28.9047 29.3356 32.0312ZM22.2244 18.3709C22.2861 18.3074 22.9099 17.733 25.7548 17.1237C26.1427 17.0406 26.522 16.9678 26.8747 16.9051C26.8137 17.2677 26.7429 17.6576 26.662 18.0563C26.0693 20.9807 25.5105 21.6219 25.4488 21.6854C25.387 21.7489 24.7633 22.3232 21.9185 22.9326C21.5292 23.016 21.1483 23.0891 20.7945 23.152C21.1637 20.992 21.7293 18.8798 22.2244 18.3709ZM16.9888 21.9999C17.07 22.4001 17.141 22.7916 17.2022 23.1554C15.101 22.7757 13.0463 22.1943 12.5512 21.6854C12.4895 21.622 11.9308 20.9808 11.338 18.0563C11.2571 17.6576 11.1862 17.2677 11.1253 16.9051C11.478 16.9678 11.8573 17.0406 12.2452 17.1237C15.09 17.733 15.7138 18.3074 15.7756 18.3709C15.8374 18.4344 16.396 19.0756 16.9888 21.9999Z" fill="white"/>
</svg>
