<svg width="24" height="24" viewBox="0 0 24 24" fill="none" xmlns="http://www.w3.org/2000/svg">
	<g clip-path="url(#clip0)">
	<path d="M11.9813 0C8.08868 0 4.92188 3.16681 4.92188 7.05945V16.9406C4.92188 20.8332 8.08868 24 11.9813 24C15.874 24 19.0408 20.8332 19.0408 16.9406V7.05945C19.0408 3.16681 15.874 0 11.9813 0ZM17.6008 16.9406C17.6008 20.0391 15.0798 22.5601 11.9813 22.5601C8.88281 22.5601 6.36182 20.0391 6.36182 16.9406V7.05945C6.36182 3.96094 8.88281 1.43994 11.9813 1.43994C15.0798 1.43994 17.6008 3.96094 17.6008 7.05945V16.9406Z" fill="white"/>
	<path d="M11.9814 4.77429C11.5837 4.77429 11.2615 5.09656 11.2615 5.49426V8.80811C11.2615 9.20563 11.5837 9.52808 11.9814 9.52808C12.379 9.52808 12.7014 9.20563 12.7014 8.80811V5.49426C12.7014 5.09656 12.3792 4.77429 11.9814 4.77429Z" fill="white"/>
	</g>
	<defs>
	<clipPath id="clip0">
	<rect width="24" height="24" fill="white"/>
	</clipPath>
	</defs>
</svg>
