<svg width="36" height="36" viewBox="0 0 36 36" fill="none" xmlns="http://www.w3.org/2000/svg">
	<rect width="36" height="36" fill="white"/>
	<path d="M28.935 5.56503C29.0744 5.70562 29.2403 5.81721 29.4231 5.89336C29.6059 5.96952 29.8019 6.00872 30 6.00872C30.198 6.00872 30.394 5.96952 30.5768 5.89336C30.7596 5.81721 30.9255 5.70562 31.065 5.56503C31.1975 5.41922 31.304 5.2518 31.38 5.07003C31.4568 4.88969 31.4976 4.69604 31.5 4.50003C31.5011 4.30262 31.4633 4.10692 31.3886 3.92417C31.314 3.74141 31.204 3.57519 31.065 3.43503L30.84 3.25503C30.7563 3.19826 30.6656 3.15286 30.57 3.12003C30.2968 3.00516 29.9957 2.97377 29.7047 3.02983C29.4138 3.0859 29.1459 3.22689 28.935 3.43503C28.7959 3.57519 28.686 3.74141 28.6113 3.92417C28.5367 4.10692 28.4988 4.30262 28.5 4.50003C28.5023 4.69604 28.5431 4.88969 28.62 5.07003C28.6959 5.2518 28.8025 5.41922 28.935 5.56503ZM30 7.50003C29.6021 7.50003 29.2206 7.65806 28.9393 7.93937C28.658 8.22067 28.5 8.6022 28.5 9.00003V15C28.5 15.3979 28.658 15.7794 28.9393 16.0607C29.2206 16.342 29.6021 16.5 30 16.5C30.3978 16.5 30.7793 16.342 31.0606 16.0607C31.3419 15.7794 31.5 15.3979 31.5 15V9.00003C31.5 8.6022 31.3419 8.22067 31.0606 7.93937C30.7793 7.65806 30.3978 7.50003 30 7.50003ZM30.09 19.5C29.6963 19.4534 29.3002 19.5645 28.9882 19.809C28.6763 20.0536 28.4737 20.4116 28.425 20.805C28.1068 23.345 26.8717 25.6813 24.9519 27.3746C23.0321 29.0679 20.5598 30.0016 18 30H9.61496L10.575 29.055C10.8543 28.774 11.0112 28.3938 11.0112 27.9975C11.0112 27.6012 10.8543 27.2211 10.575 26.94C9.1012 25.4724 8.09652 23.6001 7.68834 21.5606C7.28017 19.5212 7.48689 17.4064 8.28228 15.4846C9.07768 13.5628 10.4259 11.9205 12.156 10.766C13.8861 9.61155 15.9201 8.9969 18 9.00003C19.8392 8.99725 21.646 9.48389 23.235 10.41C23.5734 10.563 23.9564 10.5849 24.3101 10.4717C24.6638 10.3585 24.9628 10.1181 25.1495 9.79707C25.3361 9.47604 25.3971 9.0972 25.3205 8.73384C25.2439 8.37048 25.0353 8.04843 24.735 7.83003C22.6937 6.62956 20.3681 5.99767 18 6.00003C15.4612 6.00837 12.9762 6.73245 10.8302 8.08913C8.68432 9.44582 6.96445 11.3801 5.86807 13.67C4.77168 15.9599 4.34323 18.5125 4.63188 21.0349C4.92054 23.5572 5.9146 25.947 7.49997 27.93L4.93497 30.435C4.72683 30.646 4.58583 30.9138 4.52977 31.2048C4.47371 31.4958 4.5051 31.7969 4.61997 32.07C4.7325 32.344 4.92359 32.5784 5.16917 32.7439C5.41475 32.9094 5.70383 32.9985 5.99997 33H18C21.2894 33 24.4657 31.799 26.9322 29.6225C29.3987 27.446 30.9856 24.4439 31.395 21.18C31.4202 20.9839 31.4063 20.7848 31.3543 20.5941C31.3023 20.4034 31.2131 20.2248 31.0918 20.0687C30.9705 19.9125 30.8196 19.7819 30.6476 19.6843C30.4757 19.5868 30.2862 19.5241 30.09 19.5Z" fill="#FFA703"/>
</svg>
