<svg width="36" height="36" viewBox="0 0 36 36" fill="none" xmlns="http://www.w3.org/2000/svg">
	<path d="M31.065 25.065L27.435 21.435C27.2956 21.2944 27.1297 21.1828 26.9469 21.1067C26.7641 21.0305 26.568 20.9913 26.37 20.9913C26.172 20.9913 25.9759 21.0305 25.7931 21.1067C25.6103 21.1828 25.4444 21.2944 25.305 21.435L19.935 26.805C19.796 26.9452 19.686 27.1114 19.6113 27.2941C19.5367 27.4769 19.4989 27.6726 19.5 27.87V31.5C19.5 31.8978 19.658 32.2794 19.9393 32.5607C20.2206 32.842 20.6022 33 21 33H24.63C24.8274 33.0011 25.0231 32.9633 25.2059 32.8887C25.3886 32.814 25.5548 32.704 25.695 32.565L31.065 27.195C31.2056 27.0556 31.3172 26.8897 31.3933 26.7069C31.4695 26.5241 31.5087 26.328 31.5087 26.13C31.5087 25.932 31.4695 25.7359 31.3933 25.5531C31.3172 25.3703 31.2056 25.2044 31.065 25.065ZM24 30H22.5V28.5L26.37 24.63L27.87 26.13L24 30ZM15 30H9C8.60218 30 8.22064 29.842 7.93934 29.5607C7.65804 29.2794 7.5 28.8978 7.5 28.5V7.5C7.5 7.10218 7.65804 6.72064 7.93934 6.43934C8.22064 6.15804 8.60218 6 9 6H16.5V10.5C16.5 11.6935 16.9741 12.8381 17.818 13.682C18.6619 14.5259 19.8065 15 21 15H25.5V16.5C25.5 16.8978 25.658 17.2794 25.9393 17.5607C26.2206 17.842 26.6022 18 27 18C27.3978 18 27.7794 17.842 28.0607 17.5607C28.342 17.2794 28.5 16.8978 28.5 16.5V13.5C28.5 13.5 28.5 13.5 28.5 13.41C28.4844 13.2722 28.4542 13.1364 28.41 13.005V12.87C28.3379 12.7158 28.2417 12.574 28.125 12.45L19.125 3.45C19.001 3.33332 18.8592 3.23712 18.705 3.165C18.6602 3.15864 18.6148 3.15864 18.57 3.165L18.09 3H9C7.80653 3 6.66193 3.47411 5.81802 4.31802C4.97411 5.16193 4.5 6.30653 4.5 7.5V28.5C4.5 29.6935 4.97411 30.8381 5.81802 31.682C6.66193 32.5259 7.80653 33 9 33H15C15.3978 33 15.7794 32.842 16.0607 32.5607C16.342 32.2794 16.5 31.8978 16.5 31.5C16.5 31.1022 16.342 30.7206 16.0607 30.4393C15.7794 30.158 15.3978 30 15 30ZM19.5 8.115L23.385 12H21C20.6022 12 20.2206 11.842 19.9393 11.5607C19.658 11.2794 19.5 10.8978 19.5 10.5V8.115ZM12 21H21C21.3978 21 21.7794 20.842 22.0607 20.5607C22.342 20.2794 22.5 19.8978 22.5 19.5C22.5 19.1022 22.342 18.7206 22.0607 18.4393C21.7794 18.158 21.3978 18 21 18H12C11.6022 18 11.2206 18.158 10.9393 18.4393C10.658 18.7206 10.5 19.1022 10.5 19.5C10.5 19.8978 10.658 20.2794 10.9393 20.5607C11.2206 20.842 11.6022 21 12 21ZM12 15H13.5C13.8978 15 14.2794 14.842 14.5607 14.5607C14.842 14.2794 15 13.8978 15 13.5C15 13.1022 14.842 12.7206 14.5607 12.4393C14.2794 12.158 13.8978 12 13.5 12H12C11.6022 12 11.2206 12.158 10.9393 12.4393C10.658 12.7206 10.5 13.1022 10.5 13.5C10.5 13.8978 10.658 14.2794 10.9393 14.5607C11.2206 14.842 11.6022 15 12 15ZM15 24H12C11.6022 24 11.2206 24.158 10.9393 24.4393C10.658 24.7206 10.5 25.1022 10.5 25.5C10.5 25.8978 10.658 26.2794 10.9393 26.5607C11.2206 26.842 11.6022 27 12 27H15C15.3978 27 15.7794 26.842 16.0607 26.5607C16.342 26.2794 16.5 25.8978 16.5 25.5C16.5 25.1022 16.342 24.7206 16.0607 24.4393C15.7794 24.158 15.3978 24 15 24Z" fill="#FFA703"/>
</svg>
