<svg width="36" height="36" viewBox="0 0 36 36" fill="none" xmlns="http://www.w3.org/2000/svg">
	<path d="M32.5649 23.3699L25.7849 16.6049C25.9268 15.914 25.9972 15.2103 25.9949 14.5049C25.9944 12.5709 25.5063 10.6682 24.5758 8.97277C23.6453 7.2773 22.3025 5.84376 20.6713 4.80466C19.0401 3.76556 17.1733 3.15443 15.2435 3.02776C13.3136 2.90109 11.3829 3.26297 9.62993 4.07995C9.40783 4.1814 9.21386 4.33555 9.06486 4.52898C8.91586 4.72242 8.81634 4.94931 8.77493 5.18995C8.73368 5.42753 8.75032 5.67155 8.82343 5.90133C8.89655 6.13111 9.02398 6.33988 9.19493 6.50995L15.7199 13.0199L13.0199 15.7199L6.50993 9.19495C6.33843 9.02665 6.12901 8.90202 5.8993 8.83154C5.66959 8.76106 5.4263 8.7468 5.18993 8.78995C4.9508 8.82984 4.72491 8.9271 4.53159 9.07339C4.33827 9.21968 4.1833 9.41066 4.07993 9.62995C3.26022 11.3887 2.89865 13.3262 3.02887 15.2622C3.15908 17.1983 3.77685 19.0699 4.8247 20.7031C5.87255 22.3362 7.31643 23.6778 9.02204 24.603C10.7277 25.5283 12.6396 26.0071 14.5799 25.9949C15.2853 25.9972 15.989 25.9268 16.6799 25.7849L23.4449 32.5649C23.5844 32.7055 23.7503 32.8171 23.9331 32.8933C24.1159 32.9694 24.3119 33.0086 24.5099 33.0086C24.7079 33.0086 24.904 32.9694 25.0868 32.8933C25.2696 32.8171 25.4355 32.7055 25.5749 32.5649C25.7155 32.4255 25.8271 32.2596 25.9033 32.0768C25.9794 31.894 26.0186 31.698 26.0186 31.4999C26.0186 31.3019 25.9794 31.1059 25.9033 30.9231C25.8271 30.7403 25.7155 30.5744 25.5749 30.4349L18.2249 23.0849C18.0413 22.9025 17.8135 22.7707 17.5638 22.7023C17.3141 22.634 17.0509 22.6315 16.7999 22.6949C16.0757 22.8889 15.3297 22.9897 14.5799 22.9949C13.458 23.0048 12.3452 22.7927 11.3056 22.3706C10.2661 21.9486 9.32029 21.325 8.52276 20.5358C7.72524 19.7467 7.09174 18.8075 6.65876 17.7725C6.22577 16.7374 6.00186 15.6269 5.99993 14.5049C5.99799 14.0025 6.03813 13.5007 6.11993 13.0049L11.9999 18.8999C12.1394 19.0405 12.3053 19.1521 12.4881 19.2283C12.6709 19.3044 12.8669 19.3436 13.0649 19.3436C13.2629 19.3436 13.459 19.3044 13.6418 19.2283C13.8246 19.1521 13.9905 19.0405 14.1299 18.8999L18.8999 14.0849C19.1703 13.8052 19.3214 13.4315 19.3214 13.0424C19.3214 12.6534 19.1703 12.2796 18.8999 11.9999L13.0649 6.11995C13.5608 6.03897 14.0625 5.99883 14.5649 5.99995C16.818 6.00392 18.9774 6.90173 20.5692 8.4963C22.1609 10.0909 23.0549 12.2519 23.0549 14.5049C23.0497 15.2547 22.9489 16.0007 22.7549 16.7249C22.6914 16.9759 22.694 17.2391 22.7623 17.4888C22.8307 17.7385 22.9625 17.9663 23.1449 18.1499L30.4949 25.4999C30.7774 25.7824 31.1605 25.9411 31.5599 25.9411C31.9594 25.9411 32.3425 25.7824 32.6249 25.4999C32.9074 25.2175 33.0661 24.8344 33.0661 24.4349C33.0661 24.0355 32.9074 23.6524 32.6249 23.3699H32.5649Z" fill="#FFA703"/>
</svg>
